<svg id="CHOMPI_FaceLogo_Peach" xmlns="http://www.w3.org/2000/svg" width="89.01" height="72.084" viewBox="0 0 89.01 72.084">
  <defs>
    <style>
      .cls-1 {
        fill: #fff;
      }

      .cls-2 {
        fill: #ffb3aa;
      }

      .cls-3 {
        fill: #fab0a8;
      }
    </style>
  </defs>
  <g id="Chompi_Club_Logo_-_Face_Wht" data-name="Chompi Club Logo - Face Wht">
    <path id="Path_977" data-name="Path 977" class="cls-1" d="M790.193,778.37a1.149,1.149,0,1,0,1.183,1.149A1.107,1.107,0,0,0,790.193,778.37Zm0,2.091a.942.942,0,1,1,1.01-.94A.915.915,0,0,1,790.193,780.461Z" transform="translate(-708.835 -708.584)"/>
    <path id="Path_978" data-name="Path 978" class="cls-1" d="M795.5,783.036c0-.2-.133-.307-.374-.307h-.311a.123.123,0,0,0-.125.133v.779a.129.129,0,1,0,.258,0v-.254l.116.013a.124.124,0,0,1,.112.1l.057.182a.123.123,0,0,0,.125.1.135.135,0,0,0,.125-.2l-.049-.129a.19.19,0,0,0-.133-.138.28.28,0,0,0,.2-.281Zm-.41.156h-.148v-.2h.142c.08,0,.148.027.148.1S795.179,783.193,795.09,783.193Z" transform="translate(-713.702 -712.319)"/>
    <path id="Path_979" data-name="Path 979" class="cls-2" d="M278.1,650.984c-2.686.069-4.011,1.633-7.028,3.994a35.532,35.532,0,0,1-4.271,2.573c-.153.251.123.655.636.675s2.14.036,4.92-1.694c1.738-1.08,3.363-2.447,6.286-1.991,3.648.569,5.9,6.243-2.19,12.646a17.582,17.582,0,0,1-5.309,2.724c-.385.127-.311.642.152.675,5.472.241,12.719-4.909,14.141-10.492a7.383,7.383,0,0,0-7.337-9.109Z" transform="translate(-261.39 -599.443)"/>
    <path id="Path_980" data-name="Path 980" class="cls-2" d="M695.873,655.916c-3.017-2.361-4.342-3.925-7.027-3.994a7.381,7.381,0,0,0-7.337,9.109c1.422,5.584,8.669,10.732,14.141,10.493h0c.463-.033.537-.547.152-.675a17.583,17.583,0,0,1-5.309-2.725c-8.093-6.4-5.837-12.077-2.19-12.645,2.922-.456,4.548.911,6.286,1.991,2.78,1.73,4.406,1.715,4.92,1.695s.789-.422.636-.675a35.746,35.746,0,0,1-4.272-2.573Z" transform="translate(-616.542 -600.248)"/>
    <path id="Path_981" data-name="Path 981" class="cls-3" d="M302.188,291.871a21.114,21.114,0,0,0-24.22,11.136c-.96,1.967-1.372,3.472-4.445,3.118-2.1-.242-2.806-.67-3.564-2.374a21.148,21.148,0,0,0-24.02-12.048A21.7,21.7,0,0,0,229.3,312.381a21.334,21.334,0,0,0,27.349,20.411c8.835-2.646,14.591-10,15.291-19.534h0c.158-2.143,1.21-3.156,2.6-2.484,1.163.562,1.064,1.652,1.137,2.714a21.339,21.339,0,0,0,42.612-.024,21.542,21.542,0,0,0-16.108-21.594ZM250.554,329.03a16.586,16.586,0,1,1,16.684-16.6,16.565,16.565,0,0,1-16.684,16.6Zm46.418-.007a16.583,16.583,0,0,1-.063-33.167h0a16.583,16.583,0,1,1,.062,33.167Z" transform="translate(-229.3 -291.183)"/>
    <path id="Path_982" data-name="Path 982" class="cls-2" d="M498.393,572.59h0c-2.352-1.579-2.958-3.623-2.808-6.553.067-1.079.8-2.222-.514-2.6s-1.268,1.1-1.5,2.1c-.052.291-.143.7-.212,1.086-.392,2.288-1.053,3.011-2.58,3.776a10.311,10.311,0,0,1-10.848-1.437c-.508-.414-1.192-1.2-1.789-.61-.709.7-.126,1.269.382,2.023,2.5,3.491,7.126,5.78,11.392,4.2,2.411-.892,5.013-2.846,7.267-.125a1.376,1.376,0,0,0,2.093-.09c.7-.961-.3-1.382-.881-1.772Z" transform="translate(-442.216 -524.391)"/>
    <path id="Path_983" data-name="Path 983" class="cls-1" d="M293.841,337.65h-.056a13.961,13.961,0,0,0-5.575,1.155,14.2,14.2,0,0,0-4.549,3.136,13.888,13.888,0,0,0-4,10.112,14.755,14.755,0,0,0,4.08,10.209,14.317,14.317,0,0,0,9.844,4.147c.137,0,.276.007.413.007a13.261,13.261,0,0,0,9.437-4.042,14.853,14.853,0,0,0,4.287-10.5,14.437,14.437,0,0,0-4.12-9.991,13.636,13.636,0,0,0-9.765-4.229ZM294,364.865h0c-.12,0-.242,0-.362-.006-7.055-.228-12.24-5.314-12.425-12.846A12.6,12.6,0,0,1,293.787,339.2h.049a12.711,12.711,0,0,1,12.34,12.684C306.232,358.834,300.715,364.865,294,364.865Z" transform="translate(-272.446 -330.994)"/>
    <path id="Path_984" data-name="Path 984" class="cls-1" d="M337.323,470.23h0a2.181,2.181,0,0,0-2.12,2.414,2.386,2.386,0,0,0,4.77.01C339.961,471.039,338.927,470.23,337.323,470.23Z" transform="translate(-320.032 -444.583)"/>
    <path id="Path_985" data-name="Path 985" class="cls-1" d="M365.212,373.119h0a6,6,0,0,0-5.973,6.025,6.2,6.2,0,0,0,5.932,6.154,6.3,6.3,0,0,0,6.028-6.1,6.172,6.172,0,0,0-5.985-6.079Z" transform="translate(-340.626 -361.382)"/>
    <path id="Path_986" data-name="Path 986" class="cls-1" d="M618.351,337.65H618.3a13.961,13.961,0,0,0-5.575,1.155,14.2,14.2,0,0,0-4.549,3.136,13.888,13.888,0,0,0-4,10.112,14.755,14.755,0,0,0,4.08,10.209,14.317,14.317,0,0,0,9.844,4.147c.138,0,.276.007.413.007a13.261,13.261,0,0,0,9.437-4.042,14.846,14.846,0,0,0,4.286-10.5,14.437,14.437,0,0,0-4.12-9.991,13.636,13.636,0,0,0-9.765-4.229Zm.159,27.215c-.12,0-.242,0-.362-.006-7.055-.228-12.24-5.314-12.425-12.846A12.6,12.6,0,0,1,618.3,339.2h.049a12.711,12.711,0,0,1,12.34,12.684C630.742,358.834,625.225,364.865,618.51,364.865Z" transform="translate(-550.472 -330.994)"/>
    <path id="Path_987" data-name="Path 987" class="cls-1" d="M689.712,373.119a6,6,0,0,0-5.973,6.025,6.2,6.2,0,0,0,5.932,6.154h0a6.3,6.3,0,0,0,6.028-6.1,6.172,6.172,0,0,0-5.985-6.079Z" transform="translate(-618.644 -361.382)"/>
    <path id="Path_988" data-name="Path 988" class="cls-1" d="M661.822,470.216a2.167,2.167,0,0,0-2.12,2.414,2.218,2.218,0,0,0,2.378,2.315h0a2.23,2.23,0,0,0,2.392-2.3A2.318,2.318,0,0,0,661.822,470.216Z" transform="translate(-598.049 -444.568)"/>
  </g>
</svg>
