<svg id="CHOMPI_FaceLogo_BlackWht" xmlns="http://www.w3.org/2000/svg" width="45.5" height="36" viewBox="0 0 89 72.084">
  <defs>
    <style>
      .cls-1 {
        fill: #010b13;
      }

      .cls-2 {
        fill: #fff;
      }
    </style>
  </defs>
  <g id="Chompi_Club_Logo_-_Face" data-name="Chompi Club Logo - Face">
    <g id="Group_898" data-name="Group 898" transform="translate(80.157 69.787)">
      <path id="Path_963" data-name="Path 963" class="cls-1" d="M790.193,778.37a1.149,1.149,0,1,0,1.183,1.148A1.107,1.107,0,0,0,790.193,778.37Zm0,2.091a.942.942,0,1,1,1.01-.939A.914.914,0,0,1,790.193,780.461Z" transform="translate(-789.01 -778.37)"/>
      <path id="Path_964" data-name="Path 964" class="cls-1" d="M795.5,783.036c0-.2-.133-.306-.374-.306h-.311a.124.124,0,0,0-.125.133v.779a.129.129,0,1,0,.258,0v-.253l.116.013a.124.124,0,0,1,.112.1l.057.182a.123.123,0,0,0,.125.1.135.135,0,0,0,.125-.2l-.049-.129a.189.189,0,0,0-.133-.138.28.28,0,0,0,.2-.281h0Zm-.41.156h-.148v-.2h.142c.08,0,.148.027.148.1s-.053.107-.142.107Z" transform="translate(-793.877 -782.106)"/>
    </g>
    <g id="Group_899" data-name="Group 899" transform="translate(0 0)">
      <path id="Path_965" data-name="Path 965" class="cls-2" d="M337.292,470.13a2.18,2.18,0,0,0-2.119,2.413,2.386,2.386,0,0,0,4.769.01c-.011-1.614-1.045-2.423-2.651-2.423h0Z" transform="translate(-320.006 -444.484)"/>
      <path id="Path_966" data-name="Path 966" class="cls-2" d="M602.4,356.862A16.581,16.581,0,1,0,585.79,340.19,16.556,16.556,0,0,0,602.4,356.862h0Zm.2-29.633a12.71,12.71,0,0,1,12.34,12.684c.056,7.076-5.661,13.2-12.536,12.974-7.054-.228-12.24-5.314-12.424-12.844A12.6,12.6,0,0,1,602.6,327.23Z" transform="translate(-534.735 -319.024)"/>
      <path id="Path_967" data-name="Path 967" class="cls-2" d="M662.1,474.843a2.228,2.228,0,0,0,2.391-2.3,2.318,2.318,0,0,0-2.649-2.423,2.165,2.165,0,0,0-2.119,2.413,2.218,2.218,0,0,0,2.377,2.314Z" transform="translate(-598.079 -444.47)"/>
      <path id="Path_968" data-name="Path 968" class="cls-2" d="M689.681,385.176a6.3,6.3,0,0,0,6.026-6.1A6.173,6.173,0,0,0,689.722,373a6,6,0,0,0-5.973,6.023,6.2,6.2,0,0,0,5.93,6.153Z" transform="translate(-618.666 -361.263)"/>
      <path id="Path_969" data-name="Path 969" class="cls-2" d="M365.172,373a6,6,0,0,0-5.973,6.023,6.2,6.2,0,0,0,5.93,6.153,6.3,6.3,0,0,0,6.026-6.1A6.173,6.173,0,0,0,365.171,373Z" transform="translate(-340.593 -361.263)"/>
      <path id="Path_970" data-name="Path 970" class="cls-2" d="M279.22,323.69a16.585,16.585,0,1,0,16.471,16.566A16.6,16.6,0,0,0,279.22,323.69h0Zm-.275,29.186c-7.054-.228-12.24-5.314-12.424-12.844a12.483,12.483,0,1,1,24.96-.129c.056,7.076-5.661,13.2-12.536,12.974Z" transform="translate(-257.758 -319.015)"/>
      <path id="Path_971" data-name="Path 971" class="cls-1" d="M278.055,651.1c-2.685.069-4.01,1.634-7.027,3.994a35.515,35.515,0,0,1-4.27,2.572c-.153.251.123.654.636.674s2.139.036,4.919-1.694c1.737-1.081,3.364-2.447,6.285-1.991,3.647.569,5.9,6.242-2.19,12.645a17.563,17.563,0,0,1-5.309,2.724c-.385.127-.311.643.152.674,5.472.241,12.718-4.908,14.14-10.491a7.382,7.382,0,0,0-7.336-9.108Z" transform="translate(-261.353 -599.54)"/>
      <path id="Path_972" data-name="Path 972" class="cls-1" d="M695.669,671.622c.463-.033.537-.547.152-.674a17.578,17.578,0,0,1-5.308-2.724c-8.092-6.4-5.837-12.075-2.19-12.645,2.921-.455,4.548.911,6.285,1.991,2.78,1.73,4.406,1.714,4.919,1.694s.789-.422.636-.674a35.741,35.741,0,0,1-4.27-2.572c-3.017-2.36-4.342-3.925-7.027-3.994a7.381,7.381,0,0,0-7.336,9.108c1.422,5.584,8.668,10.732,14.14,10.491Z" transform="translate(-616.573 -600.328)"/>
      <path id="Path_973" data-name="Path 973" class="cls-1" d="M271.9,313.117c.158-2.142,1.21-3.156,2.6-2.483,1.163.561,1.064,1.651,1.137,2.714a21.338,21.338,0,0,0,42.609-.023,21.542,21.542,0,0,0-16.106-21.592,21.114,21.114,0,0,0-24.217,11.136c-.959,1.968-1.372,3.473-4.444,3.119-2.1-.242-2.805-.67-3.563-2.373a21.145,21.145,0,0,0-24.017-12.048A21.7,21.7,0,0,0,229.27,312.24a21.331,21.331,0,0,0,27.346,20.408c8.834-2.645,14.588-10,15.29-19.533h0Zm24.966-17.4a16.581,16.581,0,1,1-16.546,16.488,16.6,16.6,0,0,1,16.546-16.488h0Zm-46.351,33.169a16.585,16.585,0,1,1,16.682-16.6,16.564,16.564,0,0,1-16.682,16.6h0Z" transform="translate(-229.27 -291.044)"/>
      <path id="Path_974" data-name="Path 974" class="cls-1" d="M303.058,348.331a12.6,12.6,0,0,0-12.621,12.812c.185,7.53,5.37,12.616,12.424,12.844,6.877.222,12.593-5.9,12.536-12.974a12.712,12.712,0,0,0-12.34-12.684h0ZM299.219,370.5a2.218,2.218,0,0,1-2.377-2.314,2.179,2.179,0,0,1,2.119-2.413c1.6,0,2.639.809,2.651,2.423a2.229,2.229,0,0,1-2.392,2.3h0Zm6.994-6.46a6.2,6.2,0,0,1-5.93-6.153,5.994,5.994,0,0,1,5.973-6.023,6.173,6.173,0,0,1,5.984,6.079,6.3,6.3,0,0,1-6.026,6.1Z" transform="translate(-281.675 -340.126)"/>
      <path id="Path_975" data-name="Path 975" class="cls-1" d="M627.412,373.987c6.877.222,12.593-5.9,12.536-12.974a12.483,12.483,0,1,0-24.96.129c.185,7.53,5.37,12.616,12.424,12.844h0Zm3.394-22.125a6.173,6.173,0,0,1,5.984,6.079,6.3,6.3,0,0,1-6.026,6.1,6.2,6.2,0,0,1-5.93-6.153,5.994,5.994,0,0,1,5.973-6.023Zm-7.295,13.909a2.316,2.316,0,0,1,2.649,2.423,2.386,2.386,0,0,1-4.769-.01,2.165,2.165,0,0,1,2.12-2.413Z" transform="translate(-559.748 -340.126)"/>
      <path id="Path_976" data-name="Path 976" class="cls-1" d="M498.36,572.508c-2.351-1.578-2.957-3.623-2.807-6.552.067-1.078.8-2.221-.516-2.6s-1.267,1.1-1.5,2.1c-.052.291-.143.7-.212,1.085-.392,2.287-1.053,3.01-2.581,3.775a10.313,10.313,0,0,1-10.848-1.436c-.508-.414-1.193-1.2-1.79-.61-.71.7-.126,1.269.382,2.022,2.5,3.49,7.126,5.78,11.392,4.2,2.41-.894,5.014-2.845,7.265-.123a1.375,1.375,0,0,0,2.092-.09c.7-.961-.3-1.383-.881-1.771h0Z" transform="translate(-442.192 -524.313)"/>
    </g>
  </g>
</svg>
